<svg xmlns="http://www.w3.org/2000/svg" width="600" height="693" viewBox="0 0 600 693">
  <title>cdiscmask</title>
  <defs>
    <clipPath id="hexInner">
      <path d="M 300.00 14.00 L 586.00 180.25 L 586.00 512.75 L 300.00 679.00 L 14.00 512.75 L 14.00 180.25 Z"></path>
    </clipPath>
    <pattern id="grid" x="0" y="0" width="38" height="38" patternUnits="userSpaceOnUse">
      <path d="M 38 0 L 0 0 0 38" fill="none" stroke="rgba(246,241,231,0.05)" stroke-width="1"></path>
    </pattern>
  </defs>

  
  <path d="M 300.00 4.00 L 596.00 175.25 L 596.00 517.75 L 300.00 689.00 L 4.00 517.75 L 4.00 175.25 Z" fill="#072020"></path>
  
  <path d="M 300.00 14.00 L 586.00 180.25 L 586.00 512.75 L 300.00 679.00 L 14.00 512.75 L 14.00 180.25 Z" fill="#0f3d3e"></path>

  <g clip-path="url(#hexInner)">
    
    <rect x="0" y="0" width="600" height="693" fill="url(#grid)"></rect>

    
    <rect x="167" y="120" width="38" height="38" fill="rgba(0,0,0,0.30)"></rect>
    <rect x="205" y="120" width="38" height="38" fill="rgba(0,0,0,0.30)"></rect>
    <rect x="243" y="120" width="38" height="38" fill="rgba(0,0,0,0.30)"></rect>
    <rect x="281" y="120" width="38" height="38" fill="rgba(0,0,0,0.30)"></rect>
    <rect x="319" y="120" width="38" height="38" fill="rgba(0,0,0,0.30)"></rect>
    <rect x="357" y="120" width="38" height="38" fill="rgba(0,0,0,0.30)"></rect>
    <rect x="395" y="120" width="38" height="38" fill="rgba(0,0,0,0.30)"></rect>
    <rect x="129" y="158" width="38" height="38" fill="rgba(0,0,0,0.30)"></rect>
    <rect x="167" y="158" width="38" height="38" fill="rgba(0,0,0,0.30)"></rect>
    <rect x="205" y="158" width="38" height="38" fill="rgba(0,0,0,0.30)"></rect>
    <rect x="243" y="158" width="38" height="38" fill="rgba(0,0,0,0.30)"></rect>
    <rect x="281" y="158" width="38" height="38" fill="rgba(0,0,0,0.30)"></rect>
    <rect x="319" y="158" width="38" height="38" fill="rgba(0,0,0,0.30)"></rect>
    <rect x="357" y="158" width="38" height="38" fill="rgba(0,0,0,0.30)"></rect>
    <rect x="395" y="158" width="38" height="38" fill="rgba(0,0,0,0.30)"></rect>
    <rect x="433" y="158" width="38" height="38" fill="rgba(0,0,0,0.30)"></rect>
    <rect x="129" y="196" width="38" height="38" fill="rgba(0,0,0,0.30)"></rect>
    <rect x="167" y="196" width="38" height="38" fill="rgba(0,0,0,0.30)"></rect>
    <rect x="205" y="196" width="38" height="38" fill="rgba(0,0,0,0.30)"></rect>
    <rect x="243" y="196" width="38" height="38" fill="rgba(0,0,0,0.30)"></rect>
    <rect x="281" y="196" width="38" height="38" fill="rgba(0,0,0,0.30)"></rect>
    <rect x="319" y="196" width="38" height="38" fill="rgba(0,0,0,0.30)"></rect>
    <rect x="357" y="196" width="38" height="38" fill="rgba(0,0,0,0.30)"></rect>
    <rect x="395" y="196" width="38" height="38" fill="rgba(0,0,0,0.30)"></rect>
    <rect x="433" y="196" width="38" height="38" fill="rgba(0,0,0,0.30)"></rect>
    <rect x="129" y="234" width="38" height="38" fill="rgba(0,0,0,0.30)"></rect>
    <rect x="167" y="234" width="38" height="38" fill="rgba(0,0,0,0.30)"></rect>
    <rect x="205" y="234" width="38" height="38" fill="rgba(0,0,0,0.30)"></rect>
    <rect x="243" y="234" width="38" height="38" fill="rgba(0,0,0,0.30)"></rect>
    <rect x="281" y="234" width="38" height="38" fill="rgba(0,0,0,0.30)"></rect>
    <rect x="319" y="234" width="38" height="38" fill="rgba(0,0,0,0.30)"></rect>
    <rect x="357" y="234" width="38" height="38" fill="rgba(0,0,0,0.30)"></rect>
    <rect x="395" y="234" width="38" height="38" fill="rgba(0,0,0,0.30)"></rect>
    <rect x="433" y="234" width="38" height="38" fill="rgba(0,0,0,0.30)"></rect>
    <rect x="129" y="272" width="38" height="38" fill="rgba(0,0,0,0.30)"></rect>
    <rect x="167" y="272" width="38" height="38" fill="rgba(0,0,0,0.30)"></rect>
    <rect x="205" y="272" width="38" height="38" fill="rgba(0,0,0,0.30)"></rect>
    <rect x="243" y="272" width="38" height="38" fill="rgba(0,0,0,0.30)"></rect>
    <rect x="281" y="272" width="38" height="38" fill="rgba(0,0,0,0.30)"></rect>
    <rect x="319" y="272" width="38" height="38" fill="rgba(0,0,0,0.30)"></rect>
    <rect x="357" y="272" width="38" height="38" fill="rgba(0,0,0,0.30)"></rect>
    <rect x="395" y="272" width="38" height="38" fill="rgba(0,0,0,0.30)"></rect>
    <rect x="433" y="272" width="38" height="38" fill="rgba(0,0,0,0.30)"></rect>
    <rect x="129" y="310" width="38" height="38" fill="rgba(0,0,0,0.30)"></rect>
    <rect x="167" y="310" width="38" height="38" fill="rgba(0,0,0,0.30)"></rect>
    <rect x="205" y="310" width="38" height="38" fill="rgba(0,0,0,0.30)"></rect>
    <rect x="243" y="310" width="38" height="38" fill="rgba(0,0,0,0.30)"></rect>
    <rect x="281" y="310" width="38" height="38" fill="rgba(0,0,0,0.30)"></rect>
    <rect x="319" y="310" width="38" height="38" fill="rgba(0,0,0,0.30)"></rect>
    <rect x="357" y="310" width="38" height="38" fill="rgba(0,0,0,0.30)"></rect>
    <rect x="395" y="310" width="38" height="38" fill="rgba(0,0,0,0.30)"></rect>
    <rect x="433" y="310" width="38" height="38" fill="rgba(0,0,0,0.30)"></rect>
    <rect x="167" y="348" width="38" height="38" fill="rgba(0,0,0,0.30)"></rect>
    <rect x="205" y="348" width="38" height="38" fill="rgba(0,0,0,0.30)"></rect>
    <rect x="243" y="348" width="38" height="38" fill="rgba(0,0,0,0.30)"></rect>
    <rect x="281" y="348" width="38" height="38" fill="rgba(0,0,0,0.30)"></rect>
    <rect x="319" y="348" width="38" height="38" fill="rgba(0,0,0,0.30)"></rect>
    <rect x="357" y="348" width="38" height="38" fill="rgba(0,0,0,0.30)"></rect>
    <rect x="395" y="348" width="38" height="38" fill="rgba(0,0,0,0.30)"></rect>
    <rect x="433" y="348" width="38" height="38" fill="rgba(0,0,0,0.30)"></rect>
    <rect x="205" y="386" width="38" height="38" fill="rgba(0,0,0,0.30)"></rect>
    <rect x="243" y="386" width="38" height="38" fill="rgba(0,0,0,0.30)"></rect>
    <rect x="281" y="386" width="38" height="38" fill="rgba(0,0,0,0.30)"></rect>
    <rect x="319" y="386" width="38" height="38" fill="rgba(0,0,0,0.30)"></rect>
    <rect x="357" y="386" width="38" height="38" fill="rgba(0,0,0,0.30)"></rect>
    <rect x="395" y="386" width="38" height="38" fill="rgba(0,0,0,0.30)"></rect>
    <rect x="167" y="424" width="38" height="38" fill="rgba(0,0,0,0.30)"></rect>
    <rect x="205" y="424" width="38" height="38" fill="rgba(0,0,0,0.30)"></rect>
    <rect x="243" y="424" width="38" height="38" fill="rgba(0,0,0,0.30)"></rect>
    <rect x="281" y="424" width="38" height="38" fill="rgba(0,0,0,0.30)"></rect>
    <rect x="319" y="424" width="38" height="38" fill="rgba(0,0,0,0.30)"></rect>
    <rect x="357" y="424" width="38" height="38" fill="rgba(0,0,0,0.30)"></rect>
    <rect x="395" y="424" width="38" height="38" fill="rgba(0,0,0,0.30)"></rect>
    <rect x="433" y="424" width="38" height="38" fill="rgba(0,0,0,0.30)"></rect>
    <rect x="129" y="462" width="38" height="38" fill="rgba(0,0,0,0.30)"></rect>
    <rect x="167" y="462" width="38" height="38" fill="rgba(0,0,0,0.30)"></rect>
    <rect x="205" y="462" width="38" height="38" fill="rgba(0,0,0,0.30)"></rect>
    <rect x="243" y="462" width="38" height="38" fill="rgba(0,0,0,0.30)"></rect>
    <rect x="281" y="462" width="38" height="38" fill="rgba(0,0,0,0.30)"></rect>
    <rect x="319" y="462" width="38" height="38" fill="rgba(0,0,0,0.30)"></rect>
    <rect x="357" y="462" width="38" height="38" fill="rgba(0,0,0,0.30)"></rect>
    <rect x="395" y="462" width="38" height="38" fill="rgba(0,0,0,0.30)"></rect>
    <rect x="433" y="462" width="38" height="38" fill="rgba(0,0,0,0.30)"></rect>
    <rect x="471" y="462" width="38" height="38" fill="rgba(0,0,0,0.30)"></rect>
    <rect x="91" y="500" width="38" height="38" fill="rgba(0,0,0,0.30)"></rect>
    <rect x="129" y="500" width="38" height="38" fill="rgba(0,0,0,0.30)"></rect>
    <rect x="167" y="500" width="38" height="38" fill="rgba(0,0,0,0.30)"></rect>
    <rect x="205" y="500" width="38" height="38" fill="rgba(0,0,0,0.30)"></rect>
    <rect x="243" y="500" width="38" height="38" fill="rgba(0,0,0,0.30)"></rect>
    <rect x="281" y="500" width="38" height="38" fill="rgba(0,0,0,0.30)"></rect>
    <rect x="319" y="500" width="38" height="38" fill="rgba(0,0,0,0.30)"></rect>
    <rect x="357" y="500" width="38" height="38" fill="rgba(0,0,0,0.30)"></rect>
    <rect x="395" y="500" width="38" height="38" fill="rgba(0,0,0,0.30)"></rect>
    <rect x="433" y="500" width="38" height="38" fill="rgba(0,0,0,0.30)"></rect>
    <rect x="471" y="500" width="38" height="38" fill="rgba(0,0,0,0.30)"></rect>

    
    <rect x="167" y="110" width="38" height="38" fill="#1a0e08"></rect>
    <rect x="205" y="110" width="38" height="38" fill="#1a0e08"></rect>
    <rect x="243" y="110" width="38" height="38" fill="#1a0e08"></rect>
    <rect x="281" y="110" width="38" height="38" fill="#1a0e08"></rect>
    <rect x="319" y="110" width="38" height="38" fill="#1a0e08"></rect>
    <rect x="357" y="110" width="38" height="38" fill="#1a0e08"></rect>
    <rect x="395" y="110" width="38" height="38" fill="#1a0e08"></rect>
    <rect x="129" y="148" width="38" height="38" fill="#1a0e08"></rect>
    <rect x="167" y="148" width="38" height="38" fill="#1a0e08"></rect>
    <rect x="205" y="148" width="38" height="38" fill="#3a2014"></rect>
    <rect x="243" y="148" width="38" height="38" fill="#3a2014"></rect>
    <rect x="281" y="148" width="38" height="38" fill="#3a2014"></rect>
    <rect x="319" y="148" width="38" height="38" fill="#3a2014"></rect>
    <rect x="357" y="148" width="38" height="38" fill="#1a0e08"></rect>
    <rect x="395" y="148" width="38" height="38" fill="#1a0e08"></rect>
    <rect x="433" y="148" width="38" height="38" fill="#1a0e08"></rect>
    <rect x="129" y="186" width="38" height="38" fill="#1a0e08"></rect>
    <rect x="167" y="186" width="38" height="38" fill="#3a2014"></rect>
    <rect x="205" y="186" width="38" height="38" fill="#f1d3b2"></rect>
    <rect x="243" y="186" width="38" height="38" fill="#f1d3b2"></rect>
    <rect x="281" y="186" width="38" height="38" fill="#f1d3b2"></rect>
    <rect x="319" y="186" width="38" height="38" fill="#e0b48f"></rect>
    <rect x="357" y="186" width="38" height="38" fill="#3a2014"></rect>
    <rect x="395" y="186" width="38" height="38" fill="#1a0e08"></rect>
    <rect x="433" y="186" width="38" height="38" fill="#1a0e08"></rect>
    <rect x="129" y="224" width="38" height="38" fill="#1a0e08"></rect>
    <rect x="167" y="224" width="38" height="38" fill="#3a2014"></rect>
    <rect x="205" y="224" width="38" height="38" fill="#f1d3b2"></rect>
    <rect x="243" y="224" width="38" height="38" fill="#f1d3b2"></rect>
    <rect x="281" y="224" width="38" height="38" fill="#e0b48f"></rect>
    <rect x="319" y="224" width="38" height="38" fill="#e0b48f"></rect>
    <rect x="357" y="224" width="38" height="38" fill="#e0b48f"></rect>
    <rect x="395" y="224" width="38" height="38" fill="#3a2014"></rect>
    <rect x="433" y="224" width="38" height="38" fill="#1a0e08"></rect>
    <rect x="129" y="262" width="38" height="38" fill="#1a0e08"></rect>
    <rect x="167" y="262" width="38" height="38" fill="#3a2014"></rect>
    <rect x="205" y="262" width="38" height="38" fill="#f1d3b2"></rect>
    <rect x="243" y="262" width="38" height="38" fill="#e0b48f"></rect>
    <rect x="281" y="262" width="38" height="38" fill="#e0b48f"></rect>
    <rect x="319" y="262" width="38" height="38" fill="#e0b48f"></rect>
    <rect x="357" y="262" width="38" height="38" fill="#e0b48f"></rect>
    <rect x="395" y="262" width="38" height="38" fill="#e0b48f"></rect>
    <rect x="433" y="262" width="38" height="38" fill="#1a0e08"></rect>
    <rect x="129" y="300" width="38" height="38" fill="#1a0e08"></rect>
    <rect x="167" y="300" width="38" height="38" fill="#3a2014"></rect>
    <rect x="205" y="300" width="38" height="38" fill="#e0b48f"></rect>
    <rect x="243" y="300" width="38" height="38" fill="#e0b48f"></rect>
    <rect x="281" y="300" width="38" height="38" fill="#b07a55"></rect>
    <rect x="319" y="300" width="38" height="38" fill="#e0b48f"></rect>
    <rect x="357" y="300" width="38" height="38" fill="#b07a55"></rect>
    <rect x="395" y="300" width="38" height="38" fill="#e0b48f"></rect>
    <rect x="433" y="300" width="38" height="38" fill="#1a0e08"></rect>
    <rect x="167" y="338" width="38" height="38" fill="#3a2014"></rect>
    <rect x="205" y="338" width="38" height="38" fill="#e0b48f"></rect>
    <rect x="243" y="338" width="38" height="38" fill="#e0b48f"></rect>
    <rect x="281" y="338" width="38" height="38" fill="#e0b48f"></rect>
    <rect x="319" y="338" width="38" height="38" fill="#e0b48f"></rect>
    <rect x="357" y="338" width="38" height="38" fill="#e0b48f"></rect>
    <rect x="395" y="338" width="38" height="38" fill="#e0b48f"></rect>
    <rect x="433" y="338" width="38" height="38" fill="#3a2014"></rect>
    <rect x="205" y="376" width="38" height="38" fill="#f1d3b2"></rect>
    <rect x="243" y="376" width="38" height="38" fill="#f1d3b2"></rect>
    <rect x="281" y="376" width="38" height="38" fill="#e0b48f"></rect>
    <rect x="319" y="376" width="38" height="38" fill="#e0b48f"></rect>
    <rect x="357" y="376" width="38" height="38" fill="#f1d3b2"></rect>
    <rect x="395" y="376" width="38" height="38" fill="#f1d3b2"></rect>
    <rect x="167" y="414" width="38" height="38" fill="#e9663b"></rect>
    <rect x="205" y="414" width="38" height="38" fill="#e9663b"></rect>
    <rect x="243" y="414" width="38" height="38" fill="#e9663b"></rect>
    <rect x="281" y="414" width="38" height="38" fill="#f1d3b2"></rect>
    <rect x="319" y="414" width="38" height="38" fill="#f1d3b2"></rect>
    <rect x="357" y="414" width="38" height="38" fill="#e9663b"></rect>
    <rect x="395" y="414" width="38" height="38" fill="#e9663b"></rect>
    <rect x="433" y="414" width="38" height="38" fill="#e9663b"></rect>
    <rect x="129" y="452" width="38" height="38" fill="#e9663b"></rect>
    <rect x="167" y="452" width="38" height="38" fill="#e9663b"></rect>
    <rect x="205" y="452" width="38" height="38" fill="#e9663b"></rect>
    <rect x="243" y="452" width="38" height="38" fill="#a93c1e"></rect>
    <rect x="281" y="452" width="38" height="38" fill="#e9663b"></rect>
    <rect x="319" y="452" width="38" height="38" fill="#e9663b"></rect>
    <rect x="357" y="452" width="38" height="38" fill="#a93c1e"></rect>
    <rect x="395" y="452" width="38" height="38" fill="#e9663b"></rect>
    <rect x="433" y="452" width="38" height="38" fill="#e9663b"></rect>
    <rect x="471" y="452" width="38" height="38" fill="#e9663b"></rect>
    <rect x="91" y="490" width="38" height="38" fill="#e9663b"></rect>
    <rect x="129" y="490" width="38" height="38" fill="#e9663b"></rect>
    <rect x="167" y="490" width="38" height="38" fill="#e9663b"></rect>
    <rect x="205" y="490" width="38" height="38" fill="#a93c1e"></rect>
    <rect x="243" y="490" width="38" height="38" fill="#e9663b"></rect>
    <rect x="281" y="490" width="38" height="38" fill="#e9663b"></rect>
    <rect x="319" y="490" width="38" height="38" fill="#e9663b"></rect>
    <rect x="357" y="490" width="38" height="38" fill="#e9663b"></rect>
    <rect x="395" y="490" width="38" height="38" fill="#a93c1e"></rect>
    <rect x="433" y="490" width="38" height="38" fill="#e9663b"></rect>
    <rect x="471" y="490" width="38" height="38" fill="#e9663b"></rect>


    
    <text x="300" y="560" text-anchor="middle" font-family="&#39;JetBrains Mono&#39;,&#39;SF Mono&#39;,Menlo,Consolas,&#39;Liberation Mono&#39;,&#39;Courier New&#39;,monospace" font-size="14" font-weight="500" letter-spacing="4" fill="rgba(246,241,231,0.55)">SUBJECT ████</text>

    
    <text x="300" y="608" text-anchor="middle" font-family="&#39;JetBrains Mono&#39;,&#39;SF Mono&#39;,Menlo,Consolas,&#39;Liberation Mono&#39;,&#39;Courier New&#39;,monospace" font-size="34" font-weight="700" letter-spacing="0.5" fill="#f6f1e7">cdiscmask</text>

    
    <path d="M 300.00 30.00 L 570.00 188.25 L 570.00 504.75 L 300.00 663.00 L 30.00 504.75 L 30.00 188.25 Z" fill="none" stroke="rgba(246,241,231,0.18)" stroke-width="2"></path>
  </g>
</svg>